<svg id="Calque_1" data-name="Calque 1" xmlns="http://www.w3.org/2000/svg" viewBox="0 0 53.85 73.22"><g id="Groupe_2" data-name="Groupe 2"><g id="Groupe_1" data-name="Groupe 1"><path id="Tracé_1" data-name="Tracé 1" d="M373.07,435.55V402a1.07,1.07,0,0,1,.65-1l18.8-7.83a1.07,1.07,0,0,1,1.39.57,1.15,1.15,0,0,1,.08.41v41.37a1.07,1.07,0,0,1-1.06,1.06H374.13A1.07,1.07,0,0,1,373.07,435.55Z" transform="translate(-373.07 -363.39)"/></g><path id="Tracé_2" data-name="Tracé 2" d="M384.23,393.4v-8.47a1.05,1.05,0,0,1,.66-1l8.45-3.48a1,1,0,0,0,.65-1V370a1.07,1.07,0,0,1,.69-1l14.86-5.57a1.06,1.06,0,0,1,1.37.62,1.15,1.15,0,0,1,.06.37v60h2.53V378.23a1.06,1.06,0,0,1,1.55-.94l11.31,6a1.08,1.08,0,0,1,.57.94v51.33a1.07,1.07,0,0,1-1.06,1.06H403.25a1.07,1.07,0,0,1-1.06-1.06V400a1.05,1.05,0,0,0-.29-.73l-7.4-7.87a1,1,0,0,0-1.18-.25l-7.6,3.26a1.06,1.06,0,0,1-1.4-.54A1,1,0,0,1,384.23,393.4Z" transform="translate(-373.07 -363.39)"/></g></svg>